<svg xmlns="http://www.w3.org/2000/svg" viewBox="0 0 40 40" role="img" aria-label="Tomorrowland logo">
  <title>Tomorrowland</title>
  <defs>
    <filter id="glow" x="-25%" y="-25%" width="150%" height="150%">
      <feGaussianBlur in="SourceGraphic" stdDeviation="1.4" result="blur"/>
      <feMerge>
        <feMergeNode in="blur"/>
        <feMergeNode in="SourceGraphic"/>
      </feMerge>
    </filter>
  </defs>
  <rect width="40" height="40" rx="5" fill="#060c1a"/>
  <g filter="url(#glow)" stroke="#00e5ff" fill="none" stroke-linecap="round" stroke-linejoin="round">
    <circle cx="10" cy="27" r="7.5" stroke-width="1.8"/>
    <circle cx="30" cy="27" r="7.5" stroke-width="1.8"/>
    <g stroke-width="0.75" opacity="0.6">
      <line x1="10" y1="27" x2="17.5" y2="27"/>
      <line x1="10" y1="27" x2="2.5" y2="27"/>
      <line x1="10" y1="27" x2="13.75" y2="20.5"/>
      <line x1="10" y1="27" x2="6.25" y2="20.5"/>
      <line x1="10" y1="27" x2="6.25" y2="33.5"/>
      <line x1="10" y1="27" x2="13.75" y2="33.5"/>
      <line x1="30" y1="27" x2="37.5" y2="27"/>
      <line x1="30" y1="27" x2="22.5" y2="27"/>
      <line x1="30" y1="27" x2="33.75" y2="20.5"/>
      <line x1="30" y1="27" x2="26.25" y2="20.5"/>
      <line x1="30" y1="27" x2="26.25" y2="33.5"/>
      <line x1="30" y1="27" x2="33.75" y2="33.5"/>
    </g>
    <circle cx="10" cy="27" r="1.8" fill="#00e5ff" stroke="none"/>
    <circle cx="30" cy="27" r="1.8" fill="#00e5ff" stroke="none"/>
    <line x1="16" y1="15" x2="20" y2="27" stroke-width="2"/>
    <line x1="16" y1="15" x2="26" y2="15" stroke-width="2"/>
    <line x1="26" y1="15" x2="20" y2="27" stroke-width="1.8"/>
    <line x1="16" y1="15" x2="10" y2="27" stroke-width="1.5"/>
    <line x1="10" y1="27" x2="20" y2="27" stroke-width="1.5"/>
    <line x1="26" y1="13" x2="27" y2="20" stroke-width="2.5"/>
    <line x1="27" y1="20" x2="30" y2="27" stroke-width="2"/>
    <line x1="26" y1="13" x2="27" y2="9" stroke-width="1.8"/>
    <line x1="24" y1="9" x2="31" y2="9" stroke-width="2"/>
    <line x1="13" y1="14" x2="20" y2="14" stroke-width="2.5"/>
  </g>
</svg>
