<svg xmlns="http://www.w3.org/2000/svg" width="960" height="280" viewBox="0 0 960 280" role="img" aria-labelledby="title desc">
  <title id="title">Tomorrowland logo option C - Horizon Gate</title>
  <desc id="desc">A calm gateway and horizon mark with a Tomorrowland wordmark for the product shell.</desc>
  <rect width="960" height="280" fill="#ffffff"/>
  <g transform="translate(48 40)">
    <rect width="200" height="200" rx="42" fill="#f8f7f2" stroke="#dfddd2" stroke-width="2"/>
    <path d="M54 152V93c0-40 32-72 72-72h48c9 0 16 7 16 16v115" fill="none" stroke="#17202a" stroke-width="13" stroke-linecap="round" stroke-linejoin="round"/>
    <path d="M78 152V96c0-23 18-41 41-41h27c7 0 13 6 13 13v84" fill="none" stroke="#0b6b5b" stroke-width="13" stroke-linecap="round" stroke-linejoin="round"/>
    <path d="M54 152h136" stroke="#17202a" stroke-width="13" stroke-linecap="round"/>
    <path d="M80 124h84" stroke="#d89a21" stroke-width="9" stroke-linecap="round"/>
    <path d="M103 95h42" stroke="#2563eb" stroke-width="9" stroke-linecap="round"/>
    <path d="M104 171h36M154 171h18" stroke="#8a969f" stroke-width="8" stroke-linecap="round"/>
  </g>
  <g transform="translate(300 82)">
    <text x="0" y="62" font-family="Inter, ui-sans-serif, system-ui, -apple-system, BlinkMacSystemFont, Segoe UI, sans-serif" font-size="66" font-weight="760" letter-spacing="0" fill="#17202a">Tomorrowland</text>
    <text x="4" y="112" font-family="Inter, ui-sans-serif, system-ui, -apple-system, BlinkMacSystemFont, Segoe UI, sans-serif" font-size="24" font-weight="520" letter-spacing="0" fill="#50606d">A quiet entry point into governed knowledge</text>
    <path d="M4 140h70M88 140h70M172 140h22" stroke="#8a969f" stroke-width="5" stroke-linecap="round"/>
  </g>
</svg>
