<svg xmlns="http://www.w3.org/2000/svg" width="960" height="280" viewBox="0 0 960 280" role="img" aria-labelledby="title desc">
  <title id="title">Tomorrowland logo option A - Compass N</title>
  <desc id="desc">A compact N mark with a search compass point and a restrained Tomorrowland wordmark.</desc>
  <rect width="960" height="280" fill="#ffffff"/>
  <g transform="translate(48 40)">
    <rect width="200" height="200" rx="42" fill="#f6f8f9" stroke="#d7dee4" stroke-width="2"/>
    <path d="M62 151V49c0-8 6-14 14-14h7c5 0 10 3 13 7l67 100V49c0-8 6-14 14-14h9c8 0 14 6 14 14v102c0 8-6 14-14 14h-8c-5 0-10-3-13-7L98 58v93c0 8-6 14-14 14h-8c-8 0-14-6-14-14Z" fill="#17202a"/>
    <path d="M82 45 158 159" fill="none" stroke="#0b6b5b" stroke-width="14" stroke-linecap="round"/>
    <circle cx="160" cy="62" r="22" fill="#ffffff" stroke="#2563eb" stroke-width="9"/>
    <path d="M176 78 194 96" stroke="#2563eb" stroke-width="9" stroke-linecap="round"/>
    <path d="M160 28 167 45 185 52 168 59 160 78 153 59 135 52 153 45Z" fill="#d89a21"/>
  </g>
  <g transform="translate(300 82)">
    <text x="0" y="62" font-family="Inter, ui-sans-serif, system-ui, -apple-system, BlinkMacSystemFont, Segoe UI, sans-serif" font-size="66" font-weight="760" letter-spacing="0" fill="#17202a">Tomorrowland</text>
    <text x="4" y="112" font-family="Inter, ui-sans-serif, system-ui, -apple-system, BlinkMacSystemFont, Segoe UI, sans-serif" font-size="24" font-weight="520" letter-spacing="0" fill="#50606d">Document intelligence with source-grounded search</text>
    <rect x="4" y="138" width="92" height="5" rx="2.5" fill="#0b6b5b"/>
    <rect x="108" y="138" width="46" height="5" rx="2.5" fill="#2563eb"/>
    <rect x="166" y="138" width="24" height="5" rx="2.5" fill="#d89a21"/>
  </g>
</svg>
