<svg xmlns="http://www.w3.org/2000/svg" width="960" height="280" viewBox="0 0 960 280" role="img" aria-labelledby="title desc">
  <title id="title">Tomorrowland logo option B - Source Lattice</title>
  <desc id="desc">A document lattice mark with connected source nodes and a Tomorrowland wordmark.</desc>
  <rect width="960" height="280" fill="#ffffff"/>
  <g transform="translate(48 40)">
    <rect width="200" height="200" rx="42" fill="#f7f8f4" stroke="#d8dfd6" stroke-width="2"/>
    <path d="M60 54c0-9 7-16 16-16h70l34 35v73c0 9-7 16-16 16H76c-9 0-16-7-16-16Z" fill="#ffffff" stroke="#17202a" stroke-width="8" stroke-linejoin="round"/>
    <path d="M146 39v35h34" fill="none" stroke="#17202a" stroke-width="8" stroke-linecap="round" stroke-linejoin="round"/>
    <path d="M84 91h68M84 119h45M84 147h74" stroke="#c4ccd2" stroke-width="8" stroke-linecap="round"/>
    <path d="M82 150 118 102 156 136" fill="none" stroke="#0b6b5b" stroke-width="10" stroke-linecap="round" stroke-linejoin="round"/>
    <circle cx="82" cy="150" r="13" fill="#2563eb" stroke="#ffffff" stroke-width="5"/>
    <circle cx="118" cy="102" r="13" fill="#0b6b5b" stroke="#ffffff" stroke-width="5"/>
    <circle cx="156" cy="136" r="13" fill="#d89a21" stroke="#ffffff" stroke-width="5"/>
  </g>
  <g transform="translate(300 82)">
    <text x="0" y="62" font-family="Inter, ui-sans-serif, system-ui, -apple-system, BlinkMacSystemFont, Segoe UI, sans-serif" font-size="66" font-weight="760" letter-spacing="0" fill="#17202a">Tomorrowland</text>
    <text x="4" y="112" font-family="Inter, ui-sans-serif, system-ui, -apple-system, BlinkMacSystemFont, Segoe UI, sans-serif" font-size="24" font-weight="520" letter-spacing="0" fill="#50606d">Search across sources, with every answer traceable</text>
    <circle cx="16" cy="140" r="6" fill="#2563eb"/>
    <path d="M28 140h116" stroke="#0b6b5b" stroke-width="5" stroke-linecap="round"/>
    <circle cx="156" cy="140" r="6" fill="#d89a21"/>
  </g>
</svg>
